<svg xmlns="http://www.w3.org/2000/svg" viewBox="0 0 128 128"><defs><style>.cls-1,.cls-3{fill:#fff458;}.cls-1{opacity:0.4;}.cls-2{fill:#5da5f8;}.cls-4{fill:#ffb125;}.cls-5{fill:none;stroke:#27393b;stroke-linecap:round;stroke-linejoin:round;stroke-width:4px;}</style></defs><title>thumbs-up</title><g id="circles"><circle class="cls-1" cx="64" cy="64" r="54"/></g><g id="icons"><rect class="cls-2" x="16" y="52" width="26" height="56" rx="2" ry="2"/><path class="cls-3" d="M42,57.79C59.39,56.28,66.9,46.44,71,28c2-9,3-16,8-16s11.23,3.89,10,15c-1,9-2,14-5,19l16.27,4.72A16.01,16.01,0,0,1,111.35,69.9l-6.36,25.91A16,16,0,0,1,89.45,108H69c-12,0-19-9.75-27-9.75Z"/><circle class="cls-4" cx="29" cy="95" r="4"/><path class="cls-5" d="M16,84V54a2.006,2.006,0,0,1,2-2h5"/><path class="cls-5" d="M33,52h7a2.006,2.006,0,0,1,2,2V68"/><path class="cls-5" d="M16,94v12a2.006,2.006,0,0,0,2,2H40a2.006,2.006,0,0,0,2-2V78"/><path class="cls-5" d="M42,98.25c7.77,0,14.61,9.21,26,9.72"/><path class="cls-5" d="M88.07,34A32.183,32.183,0,0,1,84,46l16.27,4.72A16.011,16.011,0,0,1,111.7,68"/><path class="cls-5" d="M42,57.79C59.39,56.28,66.9,46.44,71,28c2-9,3-16,8-16,4.52,0,10.05,3.17,10.15,12"/><path class="cls-5" d="M78,108H89.45a16,16,0,0,0,15.54-12.19L109.36,78"/><circle class="cls-5" cx="29" cy="95" r="4"/></g></svg>