<svg xmlns="http://www.w3.org/2000/svg" viewBox="0 0 64 64"><title>shopping-bag</title><g id="shopping-bag"><rect x="2" y="13" width="44" height="49" fill="#fff"/><rect x="46" y="13" width="8" height="49" fill="#ccc"/><rect x="54" y="13" width="8" height="49" fill="#ededed"/><path d="M24,27.28l.65-.67a10.59,10.59,0,0,1,7.6-3.25h0A10.92,10.92,0,0,1,43,34.45h0a11.26,11.26,0,0,1-3.15,7.84L24,58.64,8.15,42.29A11.26,11.26,0,0,1,5,34.45H5A10.92,10.92,0,0,1,15.75,23.36h0a10.59,10.59,0,0,1,7.6,3.25Z" fill="#ff504d"/><rect x="2" y="13" width="60" height="49" fill="none" stroke="#3e3948" stroke-miterlimit="10" stroke-width="2"/><line x1="46" y1="13" x2="46" y2="62" fill="none" stroke="#3e3948" stroke-miterlimit="10" stroke-width="2"/><line x1="54" y1="14" x2="54" y2="58" fill="none" stroke="#3e3948" stroke-miterlimit="10" stroke-width="2"/><line x1="54" y1="58" x2="46" y2="62" fill="none" stroke="#3e3948" stroke-miterlimit="10" stroke-width="2"/><line x1="54" y1="58" x2="62" y2="62" fill="none" stroke="#3e3948" stroke-miterlimit="10" stroke-width="2"/><path d="M33,22V11a9,9,0,0,0-9-9H18a9,9,0,0,0-9,9V22" fill="none" stroke="#3e3948" stroke-miterlimit="10" stroke-width="2"/><path d="M51,13V11a9,9,0,0,0-9-9H36a9,9,0,0,0-9,9v2" fill="none" stroke="#3e3948" stroke-miterlimit="10" stroke-width="2"/><line x1="49" y1="55" x2="51" y2="55" fill="none" stroke="#3e3948" stroke-miterlimit="10" stroke-width="2"/><line x1="49" y1="51" x2="51" y2="51" fill="none" stroke="#3e3948" stroke-miterlimit="10" stroke-width="2"/><line x1="49" y1="47" x2="51" y2="47" fill="none" stroke="#3e3948" stroke-miterlimit="10" stroke-width="2"/><line x1="49" y1="17" x2="51" y2="17" fill="none" stroke="#3e3948" stroke-miterlimit="10" stroke-width="2"/><polyline points="15 34 10 34 10 37 14 37 14 40 9 40" fill="none" stroke="#3e3948" stroke-miterlimit="10" stroke-width="2"/><polyline points="39 34 34 34 34 40 39 40" fill="none" stroke="#3e3948" stroke-miterlimit="10" stroke-width="2"/><line x1="39" y1="37" x2="34" y2="37" fill="none" stroke="#3e3948" stroke-miterlimit="10" stroke-width="2"/><polyline points="26 33 26 40 31 40" fill="none" stroke="#3e3948" stroke-miterlimit="10" stroke-width="2"/><polyline points="18 41 18 34 22 34 22 41" fill="none" stroke="#3e3948" stroke-miterlimit="10" stroke-width="2"/><line x1="18" y1="38" x2="22" y2="38" fill="none" stroke="#3e3948" stroke-miterlimit="10" stroke-width="2"/></g></svg>