<svg id="icons" xmlns="http://www.w3.org/2000/svg" viewBox="0 0 64 64"><title>stack-books-glasses</title><g id="stack-books-glasses"><path d="M63,58a7,7,0,0,1,0-14H9a7,7,0,0,0-7,7H2a7,7,0,0,0,7,7Z" fill="#ffe02c"/><path d="M9,56A5,5,0,0,1,9,46H55.58a9,9,0,0,0,0,10Z" fill="#ffc81a"/><path d="M63,58a7,7,0,0,1,0-14H9a7,7,0,0,0-7,7H2a7,7,0,0,0,7,7Z" fill="none" stroke="#37464f" stroke-miterlimit="10" stroke-width="2"/><path d="M4,32c3.39,0,4.89,2.7,4.89,6S7.39,44,4,44H50.25c3.42,0,6.5-2.64,6.5-6h0c0-3.36-3.08-6-6.5-6Z" fill="#f5f6f7"/><path d="M9.63,42a7,7,0,0,0,0-8H50.25a4.33,4.33,0,0,1,4.5,4,4.33,4.33,0,0,1-4.5,4Z" fill="#c8ced6"/><path d="M3,32A6,6,0,0,1,3,44H50.25c3.42,0,6.5-2.64,6.5-6h0c0-3.36-3.08-6-6.5-6Z" fill="none" stroke="#37464f" stroke-miterlimit="10" stroke-width="2"/><rect x="19" y="24" width="33" height="8" fill="#ff6ea6"/><rect x="21" y="26" width="29" height="4" fill="#d6568a"/><rect x="8" y="24" width="11" height="8" fill="#f26b9c"/><rect x="8" y="24" width="44" height="8" fill="none" stroke="#37464f" stroke-miterlimit="10" stroke-width="2"/><line x1="19" y1="24" x2="19" y2="32" fill="none" stroke="#37464f" stroke-miterlimit="10" stroke-width="2"/><line x1="12" y1="27" x2="12" y2="29" fill="none" stroke="#37464f" stroke-miterlimit="10" stroke-width="2"/><line x1="15" y1="27" x2="15" y2="29" fill="none" stroke="#37464f" stroke-miterlimit="10" stroke-width="2"/><line x1="22" y1="28" x2="49" y2="28" fill="none" stroke="#37464f" stroke-miterlimit="10" stroke-width="2"/><rect x="10" y="18" width="44" height="6" fill="#afdd66"/><rect x="12" y="20" width="40" height="2" fill="#8dce25"/><rect x="10" y="18" width="44" height="6" fill="none" stroke="#37464f" stroke-miterlimit="10" stroke-width="2"/><polygon points="22 41 19 39 16 41 16 31 22 31 22 41" fill="#e74b3c"/><rect x="16" y="31" width="6" height="2" fill="#c12d2d"/><path d="M11,17H53a0,0,0,0,1,0,0v1a1,1,0,0,1-1,1H12a1,1,0,0,1-1-1V17A0,0,0,0,1,11,17Z" opacity="0.2"/><rect x="35" y="6" width="16" height="12" rx="2" ry="2" fill="#3598dc"/><path d="M29,12v4a2,2,0,0,1-2,2H15a2,2,0,0,1-2-2V12" fill="#3598dc"/><path d="M13,12V8a2,2,0,0,1,2-2H27a2,2,0,0,1,2,2v4Z" fill="#3dbbe8"/><path d="M35,12V8a2,2,0,0,1,2-2H49a2,2,0,0,1,2,2v4Z" fill="#3dbbe8"/><path d="M28.88,8a4,4,0,0,1,6.25,0" fill="none" stroke="#37464f" stroke-miterlimit="10" stroke-width="2"/><line x1="13" y1="11" x2="29" y2="11" fill="none" stroke="#2b7fb9" stroke-miterlimit="10" stroke-width="2"/><line x1="51" y1="11" x2="40" y2="11" fill="none" stroke="#2b7fb9" stroke-miterlimit="10" stroke-width="2"/><path d="M35,11h8a4,4,0,0,1,4,4h0" fill="none" stroke="#2b7fb9" stroke-linecap="round" stroke-miterlimit="10" stroke-width="2"/><path d="M29,11H21a4,4,0,0,0-4,4h0" fill="none" stroke="#2b7fb9" stroke-linecap="round" stroke-miterlimit="10" stroke-width="2"/><rect x="13" y="6" width="16" height="12" rx="2" ry="2" fill="none" stroke="#37464f" stroke-miterlimit="10" stroke-width="2"/><rect x="35" y="6" width="16" height="12" rx="2" ry="2" fill="none" stroke="#37464f" stroke-miterlimit="10" stroke-width="2"/><line x1="29" y1="11" x2="35" y2="11" fill="none" stroke="#37464f" stroke-miterlimit="10" stroke-width="2"/></g></svg>