<svg xmlns="http://www.w3.org/2000/svg" viewBox="0 0 128 128"><defs><style>.cls-1{isolation:isolate;}.cls-2{mix-blend-mode:multiply;}.cls-3{fill:#093357;}.cls-4{fill:#e05951;}.cls-5{fill:#e2bc00;}</style></defs><title>podcasts</title><g class="cls-1"><g id="icons" class="cls-2"><path class="cls-3" d="M92,89.32a2,2,0,0,1-1.33-3.49,40,40,0,1,0-53.31,0,2,2,0,1,1-2.67,3,44,44,0,1,1,58.65,0A2,2,0,0,1,92,89.32Z"/><path class="cls-3" d="M85.68,72.32A2,2,0,0,1,84,69.21a24,24,0,1,0-40,0,2,2,0,0,1-3.33,2.21,28,28,0,1,1,46.69,0A2,2,0,0,1,85.68,72.32Z"/><path class="cls-4" d="M64,68A12,12,0,1,1,76,56,12,12,0,0,1,64,68Z"/><path class="cls-5" d="M71.61,115H56.42a2,2,0,0,1-1.89-1.35C53,109.07,48,94.06,48,88a16,16,0,0,1,32,0c0,7.4-4.92,21.38-6.51,25.7A2,2,0,0,1,71.61,115Z"/></g></g></svg>