<svg xmlns="http://www.w3.org/2000/svg" viewBox="0 0 64 64"><defs><style>.cls-1{isolation:isolate;}.cls-2{mix-blend-mode:multiply;}.cls-3{fill:#ea6e60;}.cls-4{fill:#f4cd51;}.cls-5{fill:#f5f1e0;}.cls-6{fill:none;stroke:#3b342f;stroke-linecap:round;stroke-linejoin:round;stroke-width:2px;}</style></defs><title>servers</title><g class="cls-1"><g id="icons" class="cls-2"><g id="_Group_" data-name="&lt;Group&gt;"><circle class="cls-3" cx="52" cy="48" r="2"/><circle class="cls-3" cx="52" cy="30" r="2"/><circle class="cls-3" cx="52" cy="12" r="2"/><path class="cls-4" d="M26.46,50.37,28,55H12l1.54-4.63A2,2,0,0,1,15.44,49h9.12A2,2,0,0,1,26.46,50.37Z"/><path class="cls-4" d="M26.46,32.37,28,37H12l1.54-4.63A2,2,0,0,1,15.44,31h9.12A2,2,0,0,1,26.46,32.37Z"/><path class="cls-4" d="M26.46,14.37,28,19H12l1.54-4.63A2,2,0,0,1,15.44,13h9.12A2,2,0,0,1,26.46,14.37Z"/><polygon class="cls-3" points="55 55 55 59 9 59 9 55 12 55 28 55 55 55"/><polygon class="cls-3" points="55 37 55 41 9 41 9 37 12 37 28 37 55 37"/><path class="cls-5" d="M59,43V53a2,2,0,0,1-2,2H28l-1.54-4.63A2,2,0,0,0,24.56,49H15.44a2,2,0,0,0-1.9,1.37L12,55H7a2,2,0,0,1-2-2V43a2,2,0,0,1,2-2H57A2,2,0,0,1,59,43Zm-5,5a2,2,0,1,0-2,2A2,2,0,0,0,54,48Z"/><path class="cls-5" d="M59,25V35a2,2,0,0,1-2,2H28l-1.54-4.63A2,2,0,0,0,24.56,31H15.44a2,2,0,0,0-1.9,1.37L12,37H7a2,2,0,0,1-2-2V25a2,2,0,0,1,2-2H57A2,2,0,0,1,59,25Zm-5,5a2,2,0,1,0-2,2A2,2,0,0,0,54,30Z"/><path class="cls-5" d="M59,7V17a2,2,0,0,1-2,2H28l-1.54-4.63A2,2,0,0,0,24.56,13H15.44a2,2,0,0,0-1.9,1.37L12,19H7a2,2,0,0,1-2-2V7A2,2,0,0,1,7,5H57A2,2,0,0,1,59,7Zm-5,5a2,2,0,1,0-2,2A2,2,0,0,0,54,12Z"/><polygon class="cls-3" points="55 19 55 23 9 23 9 19 12 19 28 19 55 19"/><path class="cls-6" d="M9,19H7a2,2,0,0,1-2-2V7A2,2,0,0,1,7,5H57a2,2,0,0,1,2,2V17a2,2,0,0,1-2,2H55"/><polyline class="cls-6" points="28 19 55 19 55 23"/><polyline class="cls-6" points="9 23 9 19 12 19"/><path class="cls-6" d="M9,37H7a2,2,0,0,1-2-2V25a2,2,0,0,1,2-2H57a2,2,0,0,1,2,2V35a2,2,0,0,1-2,2H55"/><polyline class="cls-6" points="28 37 55 37 55 41"/><polyline class="cls-6" points="9 41 9 37 12 37"/><path class="cls-6" d="M9,55H7a2,2,0,0,1-2-2V43a2,2,0,0,1,2-2H57a2,2,0,0,1,2,2V53a2,2,0,0,1-2,2H55"/><polyline class="cls-6" points="28 55 55 55 55 59 9 59 9 55 12 55"/><circle class="cls-6" cx="52" cy="12" r="2"/><circle class="cls-6" cx="52" cy="30" r="2"/><circle class="cls-6" cx="52" cy="48" r="2"/><path class="cls-6" d="M28,37l-1.54-4.63A2,2,0,0,0,24.56,31H15.44a2,2,0,0,0-1.9,1.37L12,37Z"/><path class="cls-6" d="M28,55l-1.54-4.63A2,2,0,0,0,24.56,49H15.44a2,2,0,0,0-1.9,1.37L12,55Z"/><path class="cls-6" d="M28,19l-1.54-4.63A2,2,0,0,0,24.56,13H15.44a2,2,0,0,0-1.9,1.37L12,19Z"/><line class="cls-6" x1="45" y1="30" x2="41" y2="30"/><line class="cls-6" x1="45" y1="48" x2="41" y2="48"/><line class="cls-6" x1="45" y1="12" x2="41" y2="12"/></g></g></g></svg>