<svg id="icons" xmlns="http://www.w3.org/2000/svg" viewBox="0 0 128 128"><defs><style>.cls-1{fill:#f54b55;}.cls-2{fill:#303442;opacity:0.08;}.cls-3{fill:none;stroke:#303442;stroke-linecap:round;stroke-linejoin:round;stroke-width:4px;}</style></defs><title>tag</title><path class="cls-1" d="M110,26V55.55a7.98926,7.98926,0,0,1-2.34,5.67L61.35,107.65A7.92846,7.92846,0,0,1,55.7,110h-.11a7.93167,7.93167,0,0,1-5.69-2.49L20.21,76.18A7.984,7.984,0,0,1,20.36,65L64.9,20.34A7.9029,7.9029,0,0,1,70.54,18H102A8.01062,8.01062,0,0,1,110,26ZM98,36a6,6,0,1,0-6,6A6.00475,6.00475,0,0,0,98,36Z"/><path class="cls-2" d="M61.35,97.65A7.92826,7.92826,0,0,1,55.7,100h-.11a7.93187,7.93187,0,0,1-5.69-2.49L20.21,66.18c-.15692-.16632-.3006-.34-.44079-.5152A7.97682,7.97682,0,0,0,20.21,76.18L49.9,107.51A7.93187,7.93187,0,0,0,55.59,110h.11a7.92826,7.92826,0,0,0,5.65-2.35l46.31-46.43A7.98912,7.98912,0,0,0,110,55.55v-10a7.98912,7.98912,0,0,1-2.34,5.67Z"/><path class="cls-3" d="M102,18H70.54a7.9029,7.9029,0,0,0-5.64,2.34L20.36,65a7.984,7.984,0,0,0-.15,11.18L49.9,107.51A7.93167,7.93167,0,0,0,55.59,110h.11a7.92846,7.92846,0,0,0,5.65-2.35l46.31-46.43A7.98926,7.98926,0,0,0,110,55.55V26A8.01062,8.01062,0,0,0,102,18Z"/><circle class="cls-3" cx="92" cy="36" r="6"/></svg>