<svg xmlns="http://www.w3.org/2000/svg" viewBox="0 0 106 106"><defs><style>.cls-1{fill:#485761;}.cls-2{fill:#37434b;}.cls-3{fill:#70cbf6;}.cls-4{opacity:0.1;}.cls-5{fill:#171c1f;}</style></defs><title>sun-glasses</title><g id="Sun-Glasses"><g id="Fill"><path class="cls-1" d="M99,48H5a4,4,0,0,0-4,4V66A18,18,0,0,0,19,84H36c3.93,0,5.56-2.57,7.77-6.81C45.53,73.82,47.53,70,52,70c4.32,0,6.31,3.76,8.07,7.09C62.35,81.39,64,84,68,84H85a18,18,0,0,0,18-18V52A4,4,0,0,0,99,48Z"/></g><g id="Fill_Back" data-name="Fill Back"><path class="cls-2" d="M1,50l6-2H21L32,28l5-4L27,22ZM77,22,67,24l5,4L83,48H97l6,2Z"/></g><g id="Blue"><circle class="cls-3" cx="13" cy="59" r="4"/></g><g id="Shadows" class="cls-4"><path d="M98,44H82v2H98ZM85,80H68c-2.64,0-3.8-1.39-6.16-5.85C60,70.71,57.52,66,52,66c-5.68,0-8.18,4.78-10,8.26C39.71,78.64,38.59,80,36,80H19A16,16,0,0,1,3,64v2A16,16,0,0,0,19,82H36c2.59,0,3.71-1.36,6-5.74C43.82,72.78,46.32,68,52,68c5.52,0,8,4.71,9.84,8.15C64.2,80.61,65.36,82,68,82H85a16,16,0,0,0,16-16V64A16,16,0,0,1,85,80ZM22,44H6v2H22Z"/></g><g id="Inner_Lines" data-name="Inner Lines" class="cls-4"><path class="cls-5" d="M3,53v2h98V53Zm0,8h98V59H3Zm0,6h98V65H3Zm0,6h98V71H3Zm3,6H43V77H6Zm55,0H98V77H61Z"/></g><g id="Outline"><path class="cls-5" d="M104.46,48.64h0l-26-28h0a2,2,0,0,0-1.85-.6h0l-10,2h0a2,2,0,0,0-.85,3.52h0l4.69,3.75L79.62,46H24.38l9.18-16.69,4.69-3.75h0A2,2,0,0,0,37.39,22h0l-10-2h0a2,2,0,0,0-1.85.6h0l-26,28h0A2,2,0,0,0-1,50V66A20,20,0,0,0,19,86H36c10,0,8.88-14,16-14,6.88,0,6,14,16,14H85a20,20,0,0,0,20-20V50A2,2,0,0,0,104.46,48.64ZM73.75,27h0a2,2,0,0,0-.5-.6h0L71.6,25.12l4.69-.94L96.56,46H84.18ZM7.44,46,27.7,24.18l4.69.94-1.65,1.32h0a2,2,0,0,0-.5.6h0L19.82,46ZM101,66A16,16,0,0,1,85,82H68c-2.77,0-4-1.78-6.16-5.85C60,72.71,57.52,68,52,68c-5.68,0-8.18,4.78-10,8.26C39.87,80.34,38.73,82,36,82H19A16,16,0,0,1,3,66V52a2,2,0,0,1,2-2H99a2,2,0,0,1,2,2Z"/></g></g></svg>