<?xml version="1.0" encoding="UTF-8"?>
<svg width="25px" height="15px" viewBox="0 0 25 15" version="1.1" xmlns="http://www.w3.org/2000/svg" xmlns:xlink="http://www.w3.org/1999/xlink">
    <!-- Generator: Sketch 42 (36781) - http://www.bohemiancoding.com/sketch -->
    <title>video</title>
    <desc>Created with Sketch.</desc>
    <defs></defs>
    <g id="Page-1" stroke="none" stroke-width="1" fill="none" fill-rule="evenodd">
        <g id="Full-Color" transform="translate(-200.000000, -105.000000)">
            <g id="video" transform="translate(200.000000, 105.000000)">
                <path d="M15.5,14.5 L1.5,14.5 C0.948,14.5 0.5,14.052 0.5,13.5 L0.5,1.5 C0.5,0.948 0.948,0.5 1.5,0.5 L15.5,0.5 C16.052,0.5 16.5,0.948 16.5,1.5 L16.5,13.5 C16.5,14.052 16.052,14.5 15.5,14.5" id="Fill-1" fill="#FF9500"></path>
                <polygon id="Fill-3" fill="#FFCC00" points="18.5 5.1001 18.5 9.9001 24.5 13.5001 24.5 1.5001"></polygon>
                <path d="M15.5,14.5 L1.5,14.5 C0.948,14.5 0.5,14.052 0.5,13.5 L0.5,1.5 C0.5,0.948 0.948,0.5 1.5,0.5 L15.5,0.5 C16.052,0.5 16.5,0.948 16.5,1.5 L16.5,13.5 C16.5,14.052 16.052,14.5 15.5,14.5 Z" id="Stroke-5" stroke="#000000" stroke-linecap="round" stroke-linejoin="round"></path>
                <polygon id="Stroke-7" stroke="#000000" stroke-linecap="round" stroke-linejoin="round" points="18.5 5.1001 18.5 9.9001 24.5 13.5001 24.5 1.5001"></polygon>
                <path d="M15.5,12 C15.7758576,12 16,11.7758576 16,11.5 L17,11.5 L17,13.5 C17,14.3281424 16.3281424,15 15.5,15 L1.5,15 C0.671857625,15 0,14.3281424 0,13.5 L0,11.5 L1,11.5 C1,11.7758576 1.22414237,12 1.5,12 L15.5,12 Z" id="Stroke-11" fill="#000000" fill-rule="nonzero" opacity="0.239999995"></path>
                <path d="M18.2427521,10.3286465 C18.0921494,10.2382848 18,10.0755314 18,9.8999 L18,7.8999 C18,7.51125276 18.4239856,7.27119618 18.7572479,7.47115354 L24.7572479,11.0711535 C24.9078506,11.1615152 25,11.3242686 25,11.4999 L25,13.4999 C25,13.8885472 24.5760144,14.1286038 24.2427521,13.9286465 L18.2427521,10.3286465 Z" id="Stroke-15" fill="#000000" fill-rule="nonzero" opacity="0.239999995"></path>
                <path d="M13.5,4 C13.5,4.276 13.276,4.5 13,4.5 C12.724,4.5 12.5,4.276 12.5,4 C12.5,3.724 12.724,3.5 13,3.5 C13.276,3.5 13.5,3.724 13.5,4 Z" id="Stroke-18" stroke="#000000" stroke-linecap="round" stroke-linejoin="round"></path>
            </g>
        </g>
    </g>
</svg>